<svg xmlns="http://www.w3.org/2000/svg" viewBox="0 0 16 16">
  <path d="M4.715 6.542 3.343 7.914a3 3 0 1 0 4.242 4.242l1.834-1.834a3 3 0 0 0 1.238-2.459 3.07 3.07 0 0 0-.108-1.075 1.335 1.335 0 1 1 2.568-.707 5.07 5.07 0 0 1 .18 1.777 5 5 0 0 1-2.064 4.098l-1.834 1.834a5 5 0 1 1-7.07-7.07l1.372-1.372a1.335 1.335 0 0 1 2.568.707zm5.996 2.916 1.372-1.372a3 3 0 1 0-4.242-4.242L8.007 5.678a3 3 0 0 0-1.238 2.459c.046.368.135.727.268 1.069a1.335 1.335 0 1 1-2.502.917 5.07 5.07 0 0 1-.412-1.609 5 5 0 0 1 2.064-4.098l1.834-1.834a5 5 0 0 1 7.07 7.07l-1.372 1.372a1.335 1.335 0 0 1-2.568-.707z"/>
</svg>
